<svg width="10" height="10" viewBox="0 0 10 10" fill="none" xmlns="http://www.w3.org/2000/svg">
<path d="M7.15297 2.13644C7.37418 2.13644 7.55333 1.95558 7.55333 1.73248V0.403956C7.55333 0.180864 7.37418 0 7.15297 0C6.93197 0 6.75261 0.180864 6.75261 0.403956V1.73248C6.75261 1.95558 6.93197 2.13644 7.15297 2.13644ZM2.84703 2.13644C3.06803 2.13644 3.24739 1.95558 3.24739 1.73248V0.403956C3.24739 0.180864 3.06803 0 2.84703 0C2.62582 0 2.44667 0.180864 2.44667 0.403956V1.73248C2.44667 1.95558 2.62582 2.13644 2.84703 2.13644ZM9.46619 0.987267H8.03376V1.73248C8.03376 2.22251 7.63863 2.62119 7.15297 2.62119C6.66731 2.62119 6.27218 2.22251 6.27218 1.73248V0.987267H3.72782V1.73248C3.72782 2.22251 3.33269 2.62119 2.84703 2.62119C2.36137 2.62119 1.96624 2.22251 1.96624 1.73248V0.987267H0.533812C0.238934 0.987267 0 1.22835 0 1.52587V3.73417H10V1.52587C10 1.22835 9.76107 0.987267 9.46619 0.987267ZM0 9.46139C0 9.75892 0.238934 10 0.533812 10H9.46619C9.76107 10 10 9.75892 10 9.46139V4.16505H0V9.46139ZM7.39009 5.44424H8.75579V6.82222H7.39009V5.44424ZM7.39009 7.41016H8.75579V8.78813H7.39009V7.41016ZM5.34143 5.44424H6.70713V6.82222H5.34143V5.44424ZM5.34143 7.41016H6.70713V8.78813H5.34143V7.41016ZM3.29287 5.44424H4.65857V6.82222H3.29287V5.44424ZM3.29287 7.41016H4.65857V8.78813H3.29287V7.41016ZM1.24421 5.44424H2.60991V6.82222H1.24421V5.44424ZM1.24421 7.41016H2.60991V8.78813H1.24421V7.41016Z" fill="#3E52BE"/>
</svg>
