<svg width="4" height="10" viewBox="0 0 4 10" fill="none" xmlns="http://www.w3.org/2000/svg">
<path d="M1.99998 2.66667C2.64165 2.66667 3.16665 2.14167 3.16665 1.5C3.16665 0.858336 2.64165 0.333336 1.99998 0.333336C1.35831 0.333336 0.833313 0.858336 0.833313 1.5C0.833313 2.14167 1.35831 2.66667 1.99998 2.66667ZM1.99998 3.83334C1.35831 3.83334 0.833313 4.35834 0.833313 5C0.833313 5.64167 1.35831 6.16667 1.99998 6.16667C2.64165 6.16667 3.16665 5.64167 3.16665 5C3.16665 4.35834 2.64165 3.83334 1.99998 3.83334ZM1.99998 7.33333C1.35831 7.33333 0.833313 7.85834 0.833313 8.5C0.833313 9.14167 1.35831 9.66667 1.99998 9.66667C2.64165 9.66667 3.16665 9.14167 3.16665 8.5C3.16665 7.85834 2.64165 7.33333 1.99998 7.33333Z" fill="#3E52BE"/>
</svg>
